HIERARCHY
ROOT newVegas:Hips
{
	OFFSET 0.000000 96.479958 0.000000
	CHANNELS 6 Xposition Yposition Zposition Xrotation Yrotation Zrotation
	JOINT newVegas:Pelvis
	{
		OFFSET 0.000000 0.000000 0.000000
		CHANNELS 3 Xrotation Yrotation Zrotation
		JOINT newVegas:LeftUpLeg
		{
			OFFSET 18.735201 -5.666702 -4.541200
			CHANNELS 3 Xrotation Yrotation Zrotation
			JOINT newVegas:LeftLeg
			{
				OFFSET -0.021200 -31.938179 0.493100
				CHANNELS 3 Xrotation Yrotation Zrotation
				JOINT newVegas:LeftFoot
				{
					OFFSET 0.021200 -31.938179 -4.336299
					CHANNELS 3 Xrotation Yrotation Zrotation
					JOINT newVegas:LeftToeBase
					{
						OFFSET 0.943001 -26.722000 15.023500
						CHANNELS 3 Xrotation Yrotation Zrotation
						End Site
						{
							OFFSET 0.000000 30.670183 0.000000
						}
					}
				}
				JOINT newVegas:Left_PantLeg
				{
					OFFSET 0.663870 -9.044666 -1.108900
					CHANNELS 3 Xrotation Yrotation Zrotation
					End Site
					{
						OFFSET 1.415995 20.635357 0.000000
					}
				}
			}
		}
		JOINT newVegas:RightUpLeg
		{
			OFFSET -18.735201 -5.666702 -4.541200
			CHANNELS 3 Xrotation Yrotation Zrotation
			JOINT newVegas:RightLeg
			{
				OFFSET 0.018946 -31.938133 0.493100
				CHANNELS 3 Xrotation Yrotation Zrotation
				JOINT newVegas:RightFoot
				{
					OFFSET -0.018946 -31.938126 -4.336299
					CHANNELS 3 Xrotation Yrotation Zrotation
					JOINT newVegas:RightToeBase
					{
						OFFSET -0.943001 -26.722004 15.023500
						CHANNELS 3 Xrotation Yrotation Zrotation
						End Site
						{
							OFFSET 0.000000 30.670187 0.000000
						}
					}
				}
				JOINT newVegas:Right_PantLeg
				{
					OFFSET -0.661674 -9.044716 -1.108900
					CHANNELS 3 Xrotation Yrotation Zrotation
					End Site
					{
						OFFSET -1.415958 20.635269 0.000000
					}
				}
			}
		}
	}
	JOINT newVegas:Spine
	{
		OFFSET 0.000000 10.199997 -0.299500
		CHANNELS 3 Xrotation Yrotation Zrotation
		JOINT newVegas:Spine1
		{
			OFFSET 0.000000 11.900002 -1.516600
			CHANNELS 3 Xrotation Yrotation Zrotation
			JOINT newVegas:Spine2
			{
				OFFSET 0.000000 13.600006 -2.842500
				CHANNELS 3 Xrotation Yrotation Zrotation
				JOINT newVegas:Neck
				{
					OFFSET 0.000000 9.624100 -2.890100
					CHANNELS 3 Xrotation Yrotation Zrotation
					JOINT newVegas:Head
					{
						OFFSET 0.000000 14.068802 -1.351900
						CHANNELS 3 Xrotation Yrotation Zrotation
						JOINT newVegas:Hair_Back
						{
							OFFSET 0.000000 3.231903 -17.524799
							CHANNELS 3 Xrotation Yrotation Zrotation
							End Site
							{
								OFFSET 0.000000 19.849884 0.000000
							}
						}
						JOINT newVegas:Hair_Front
						{
							OFFSET 0.000000 31.260406 4.573800
							CHANNELS 3 Xrotation Yrotation Zrotation
							JOINT newVegas:Hair_Front1
							{
								OFFSET 0.000000 2.284103 11.993300
								CHANNELS 3 Xrotation Yrotation Zrotation
								JOINT newVegas:Hair_Front2
								{
									OFFSET 0.000000 2.284103 11.993300
									CHANNELS 3 Xrotation Yrotation Zrotation
									End Site
									{
										OFFSET 0.000000 12.208862 0.000000
									}
								}
							}
						}
						JOINT newVegas:Jowel
						{
							OFFSET 0.000000 -7.458206 6.864100
							CHANNELS 3 Xrotation Yrotation Zrotation
							End Site
							{
								OFFSET 0.000000 19.849884 0.000000
							}
						}
					}
				}
				JOINT newVegas:LeftShoulder
				{
					OFFSET 15.263000 10.923401 -0.547700
					CHANNELS 3 Xrotation Yrotation Zrotation
					JOINT newVegas:LeftArm
					{
						OFFSET 25.438599 -2.830597 -13.032500
						CHANNELS 3 Xrotation Yrotation Zrotation
						JOINT newVegas:LeftForeArm
						{
							OFFSET 29.960503 0.000000 0.000000
							CHANNELS 3 Xrotation Yrotation Zrotation
							JOINT newVegas:LeftHand
							{
								OFFSET 27.849251 0.000000 0.000000
								CHANNELS 3 Xrotation Yrotation Zrotation
								JOINT newVegas:LeftHandThumb1
								{
									OFFSET 4.487587 -3.305161 6.305391
									CHANNELS 3 Xrotation Yrotation Zrotation
									JOINT newVegas:LeftHandThumb2
									{
										OFFSET 5.480453 -3.164139 3.164143
										CHANNELS 3 Xrotation Yrotation Zrotation
										JOINT newVegas:LeftHandThumb3
										{
											OFFSET 5.159721 -2.978973 2.978967
											CHANNELS 3 Xrotation Yrotation Zrotation
											End Site
											{
												OFFSET 2.494507 5.926697 1.738678
											}
										}
									}
								}
								JOINT newVegas:LeftHandIndex1
								{
									OFFSET 18.578728 -0.527832 5.208049
									CHANNELS 3 Xrotation Yrotation Zrotation
									JOINT newVegas:LeftHandIndex2
									{
										OFFSET 3.192009 0.000000 0.000000
										CHANNELS 3 Xrotation Yrotation Zrotation
										JOINT newVegas:LeftHandIndex3
										{
											OFFSET 3.835129 0.000000 0.000000
											CHANNELS 3 Xrotation Yrotation Zrotation
											End Site
											{
												OFFSET -0.034599 3.816971 0.371180
											}
										}
									}
								}
								JOINT newVegas:LeftHandMiddle1
								{
									OFFSET 18.476105 0.000000 0.000000
									CHANNELS 3 Xrotation Yrotation Zrotation
									JOINT newVegas:LeftHandMiddle2
									{
										OFFSET 3.324875 0.000000 0.000000
										CHANNELS 3 Xrotation Yrotation Zrotation
										JOINT newVegas:LeftHandMiddle3
										{
											OFFSET 4.596550 0.000000 0.000000
											CHANNELS 3 Xrotation Yrotation Zrotation
											End Site
											{
												OFFSET 0.057701 4.578827 0.399218
											}
										}
									}
								}
								JOINT newVegas:LeftHandRing1
								{
									OFFSET 17.732719 0.121887 -4.201567
									CHANNELS 3 Xrotation Yrotation Zrotation
									JOINT newVegas:LeftHandRing2
									{
										OFFSET 2.733170 0.000000 0.000000
										CHANNELS 3 Xrotation Yrotation Zrotation
										JOINT newVegas:LeftHandRing3
										{
											OFFSET 3.178268 0.000000 0.000000
											CHANNELS 3 Xrotation Yrotation Zrotation
											End Site
											{
												OFFSET 0.119102 3.170624 0.185394
											}
										}
									}
								}
								JOINT newVegas:LeftHandPinky1
								{
									OFFSET 15.989624 -0.606689 -7.535461
									CHANNELS 3 Xrotation Yrotation Zrotation
									JOINT newVegas:LeftHandPinky2
									{
										OFFSET 2.538986 0.000000 0.000000
										CHANNELS 3 Xrotation Yrotation Zrotation
										JOINT newVegas:LeftHandPinky3
										{
											OFFSET 2.593102 0.000000 0.000000
											CHANNELS 3 Xrotation Yrotation Zrotation
											End Site
											{
												OFFSET -0.150902 2.584198 0.152708
											}
										}
									}
								}
							}
							JOINT newVegas:Left_Sleeve
							{
								OFFSET 0.267448 -0.649796 0.577675
								CHANNELS 3 Xrotation Yrotation Zrotation
								End Site
								{
									OFFSET 0.000000 15.991241 0.000000
								}
							}
							JOINT newVegas:Left_CapeC
							{
								OFFSET 15.715958 -8.608795 -6.935905
								CHANNELS 3 Xrotation Yrotation Zrotation
								JOINT newVegas:Left_CapeC1
								{
									OFFSET 0.000000 -8.688499 0.000000
									CHANNELS 3 Xrotation Yrotation Zrotation
									End Site
									{
										OFFSET 0.000000 8.688499 0.000000
									}
								}
							}
						}
						JOINT newVegas:Left_CapeB
						{
							OFFSET 26.118385 -8.608795 -7.079235
							CHANNELS 3 Xrotation Yrotation Zrotation
							JOINT newVegas:Left_CapeB1
							{
								OFFSET 0.000000 -8.688499 0.000000
								CHANNELS 3 Xrotation Yrotation Zrotation
								End Site
								{
									OFFSET 0.000000 8.688499 0.000000
								}
							}
						}
						JOINT newVegas:Left_CapeA
						{
							OFFSET 5.115639 -8.608795 -10.395809
							CHANNELS 3 Xrotation Yrotation Zrotation
							JOINT newVegas:Left_CapeA1
							{
								OFFSET 0.000000 -8.688499 0.000000
								CHANNELS 3 Xrotation Yrotation Zrotation
								End Site
								{
									OFFSET 0.000000 8.688499 0.000000
								}
							}
						}
					}
				}
				JOINT newVegas:RightShoulder
				{
					OFFSET -15.263000 10.923401 -0.547700
					CHANNELS 3 Xrotation Yrotation Zrotation
					JOINT newVegas:RightArm
					{
						OFFSET -25.438599 -2.830597 -13.032500
						CHANNELS 3 Xrotation Yrotation Zrotation
						JOINT newVegas:RightForeArm
						{
							OFFSET -29.960503 0.000000 0.000000
							CHANNELS 3 Xrotation Yrotation Zrotation
							JOINT newVegas:RightHand
							{
								OFFSET -27.849251 0.000000 0.000000
								CHANNELS 3 Xrotation Yrotation Zrotation
								JOINT newVegas:RightHandThumb1
								{
									OFFSET -4.487587 -3.305161 6.305391
									CHANNELS 3 Xrotation Yrotation Zrotation
									JOINT newVegas:RightHandThumb2
									{
										OFFSET -5.480453 -3.164139 3.164143
										CHANNELS 3 Xrotation Yrotation Zrotation
										JOINT newVegas:RightHandThumb3
										{
											OFFSET -5.159721 -2.978973 2.978967
											CHANNELS 3 Xrotation Yrotation Zrotation
											End Site
											{
												OFFSET -2.494507 5.926697 1.738678
											}
										}
									}
								}
								JOINT newVegas:RightHandIndex1
								{
									OFFSET -18.578728 -0.527832 5.208049
									CHANNELS 3 Xrotation Yrotation Zrotation
									JOINT newVegas:RightHandIndex2
									{
										OFFSET -3.192009 0.000000 0.000000
										CHANNELS 3 Xrotation Yrotation Zrotation
										JOINT newVegas:RightHandIndex3
										{
											OFFSET -3.835129 0.000000 0.000000
											CHANNELS 3 Xrotation Yrotation Zrotation
											End Site
											{
												OFFSET 0.034599 3.816971 0.371180
											}
										}
									}
								}
								JOINT newVegas:RightHandMiddle1
								{
									OFFSET -18.476105 0.000000 0.000000
									CHANNELS 3 Xrotation Yrotation Zrotation
									JOINT newVegas:RightHandMiddle2
									{
										OFFSET -3.324875 0.000000 0.000000
										CHANNELS 3 Xrotation Yrotation Zrotation
										JOINT newVegas:RightHandMiddle3
										{
											OFFSET -4.596550 0.000000 0.000000
											CHANNELS 3 Xrotation Yrotation Zrotation
											End Site
											{
												OFFSET -0.057701 4.578827 0.399218
											}
										}
									}
								}
								JOINT newVegas:RightHandRing1
								{
									OFFSET -17.732719 0.121887 -4.201567
									CHANNELS 3 Xrotation Yrotation Zrotation
									JOINT newVegas:RightHandRing2
									{
										OFFSET -2.733170 0.000000 0.000000
										CHANNELS 3 Xrotation Yrotation Zrotation
										JOINT newVegas:RightHandRing3
										{
											OFFSET -3.178268 0.000000 0.000000
											CHANNELS 3 Xrotation Yrotation Zrotation
											End Site
											{
												OFFSET -0.119102 3.170624 0.185394
											}
										}
									}
								}
								JOINT newVegas:RightHandPinky1
								{
									OFFSET -15.989624 -0.606689 -7.535461
									CHANNELS 3 Xrotation Yrotation Zrotation
									JOINT newVegas:RightHandPinky2
									{
										OFFSET -2.538986 0.000000 0.000000
										CHANNELS 3 Xrotation Yrotation Zrotation
										JOINT newVegas:RightHandPinky3
										{
											OFFSET -2.593102 0.000000 0.000000
											CHANNELS 3 Xrotation Yrotation Zrotation
											End Site
											{
												OFFSET 0.150902 2.584198 0.152708
											}
										}
									}
								}
							}
							JOINT newVegas:Right_CapeC
							{
								OFFSET -15.715958 -8.608795 -6.935905
								CHANNELS 3 Xrotation Yrotation Zrotation
								JOINT newVegas:Right_CapeC1
								{
									OFFSET 0.000000 -8.688499 0.000000
									CHANNELS 3 Xrotation Yrotation Zrotation
									End Site
									{
										OFFSET 0.000000 8.688499 0.000000
									}
								}
							}
							JOINT newVegas:Right_Sleeve
							{
								OFFSET -0.267448 -0.649994 0.577675
								CHANNELS 3 Xrotation Yrotation Zrotation
								End Site
								{
									OFFSET 0.000000 15.991302 0.000000
								}
							}
						}
						JOINT newVegas:Right_CapeA
						{
							OFFSET -5.115540 -8.608795 -10.395824
							CHANNELS 3 Xrotation Yrotation Zrotation
							JOINT newVegas:Right_CapeA1
							{
								OFFSET 0.000000 -8.688499 0.000000
								CHANNELS 3 Xrotation Yrotation Zrotation
								End Site
								{
									OFFSET 0.000000 8.688499 0.000000
								}
							}
						}
						JOINT newVegas:Right_CapeB
						{
							OFFSET -26.118187 -8.608795 -7.079266
							CHANNELS 3 Xrotation Yrotation Zrotation
							JOINT newVegas:Right_CapeB1
							{
								OFFSET 0.000000 -8.688499 0.000000
								CHANNELS 3 Xrotation Yrotation Zrotation
								End Site
								{
									OFFSET 0.000000 8.688499 0.000000
								}
							}
						}
					}
				}
				JOINT newVegas:Left_Collar
				{
					OFFSET 18.625099 8.655502 8.828100
					CHANNELS 3 Xrotation Yrotation Zrotation
					JOINT newVegas:Left_Collar1
					{
						OFFSET 14.783401 10.540405 -1.259500
						CHANNELS 3 Xrotation Yrotation Zrotation
						End Site
						{
							OFFSET 0.000000 18.199875 0.000000
						}
					}
				}
				JOINT newVegas:Collar_Back
				{
					OFFSET 0.000000 15.630707 -20.132601
					CHANNELS 3 Xrotation Yrotation Zrotation
					End Site
					{
						OFFSET 0.000000 22.523010 0.000000
					}
				}
				JOINT newVegas:Left_Peck
				{
					OFFSET 17.239599 -5.132599 25.482599
					CHANNELS 3 Xrotation Yrotation Zrotation
					End Site
					{
						OFFSET 0.000000 22.523010 0.000000
					}
				}
				JOINT newVegas:Right_Peck
				{
					OFFSET -17.239599 -5.132202 25.482599
					CHANNELS 3 Xrotation Yrotation Zrotation
					End Site
					{
						OFFSET 0.000000 22.523010 0.000000
					}
				}
				JOINT newVegas:Right_Collar
				{
					OFFSET -18.625099 8.655792 8.828100
					CHANNELS 3 Xrotation Yrotation Zrotation
					JOINT newVegas:Right_Collar1
					{
						OFFSET -14.783401 10.539993 -1.259500
						CHANNELS 3 Xrotation Yrotation Zrotation
						End Site
						{
							OFFSET 0.000000 18.199631 0.000000
						}
					}
				}
			}
		}
		JOINT newVegas:Belly
		{
			OFFSET 0.000000 -6.540398 9.014299
			CHANNELS 3 Xrotation Yrotation Zrotation
			End Site
			{
				OFFSET 0.000000 11.566666 0.000000
			}
		}
	}
	JOINT newVegas:ElvisFacialAnim_Joint
	{
		OFFSET 1.000000 -95.330101 -8.825800
		CHANNELS 3 Xrotation Yrotation Zrotation
		End Site
		{
			OFFSET 0.000000 35.315800 0.000000
		}
	}
}
MOTION
Frames: 4
Frame Time: 0.016667
0.255105 55.875397 10.496230 0.145596 0.090245 0.913894 0.000000 -0.000000 -0.000000 -100.887529 -11.094619 12.487973 84.223493 3.940379 -0.119795 18.525455 -7.657486 -7.640717 0.000000 -0.000000 -0.000000 0.000002 0.000001 0.000000 -102.688520 12.056285 -8.145137 85.278402 -3.465726 -1.479887 19.295250 0.869983 9.054456 -0.000000 -0.000001 -0.000000 -0.000000 -0.000001 -0.000002 10.430443 0.098795 -1.540589 -0.199273 0.216427 -0.355483 -0.199596 0.248527 -0.300892 -0.401935 -0.509651 0.190450 -0.401925 -0.509651 0.190450 0.000001 0.000000 0.000000 -0.401863 -0.509652 0.190452 -0.402009 -0.509651 0.190450 -0.000001 -0.000000 -0.000000 0.000001 0.000000 0.000000 0.823522 -15.262022 -7.868746 4.746748 -21.216412 -54.862217 0.000053 -62.197547 0.000066 31.062952 4.315279 41.770193 6.610629 1.798230 20.801493 2.716378 20.172571 -24.389171 0.000001 0.000000 -0.000001 -0.224154 2.792788 -26.913881 0.396828 2.121276 -21.189291 -0.000002 -0.000002 0.000004 1.299150 7.334326 -16.510937 0.329956 1.940083 -19.302456 -0.000001 0.000000 -0.000004 1.797280 9.808449 -14.182648 0.205964 1.541223 -15.221567 -0.000003 0.000003 -0.000001 2.041526 10.867650 -13.920339 0.168518 1.396418 -13.761333 0.000002 -0.000003 -0.000002 -0.000002 0.000001 0.000003 -0.000002 0.000001 0.000003 -0.000003 0.000001 0.000003 0.000002 -0.000001 -0.000000 0.000002 -0.000001 -0.000000 0.000002 -0.000001 -0.000000 0.000000 0.000000 -0.000001 3.171098 -4.378723 8.782890 -3.950253 37.253416 63.733670 -0.000012 55.137932 0.000001 43.537279 4.741000 -36.277956 -9.383509 -1.613356 -17.604708 3.563423 -24.331436 34.658822 0.000001 -0.000003 0.000001 2.952116 1.011181 13.530162 0.472468 -2.045707 26.006731 -0.000001 0.000000 -0.000001 0.105322 -3.658216 2.530031 0.585006 -2.261676 29.000631 -0.000000 0.000000 0.000001 0.455258 -7.625805 4.309857 0.107458 -0.995703 12.318859 -0.000000 -0.000001 -0.000002 -11.164706 -10.228243 7.169460 0.029115 -0.520494 6.403074 0.000000 0.000002 -0.000000 -0.000001 0.000000 0.000001 0.000001 -0.000000 0.000000 -0.000001 -0.000000 0.000001 -0.000003 0.000001 0.000001 -0.000003 0.000000 0.000001 -0.000003 0.000001 0.000001 -0.000003 -0.000000 0.000001 0.000000 0.000000 0.000000 0.000000 0.000000 0.000000 0.000000 0.000000 0.000000 0.000000 0.000000 0.000000 0.000000 0.000000 0.000000 0.000000 0.000000 0.000000 0.000000 0.000000 0.000000 0.000000 0.000000 -0.000000 0.000000 -0.000000 -0.000000 
0.249987 55.847946 10.543392 0.222027 0.105277 0.916543 0.000000 0.000000 0.000000 -101.101007 -11.050135 12.372278 84.312156 4.007862 -0.090408 18.612493 -7.606611 -7.405539 0.000000 -0.000001 -0.000000 -0.000002 -0.000001 -0.000000 -102.913916 12.065516 -8.021563 85.499324 -3.538052 -1.524212 19.300878 0.810039 8.917947 0.000000 -0.000001 0.000000 0.000001 0.000001 -0.000001 10.467077 0.092371 -1.542628 -0.063334 0.215446 -0.380943 -0.135200 0.251406 -0.311500 -0.328841 -0.509797 0.172034 -0.328839 -0.509797 0.172035 0.000001 0.000000 0.000000 -0.328843 -0.509796 0.172035 -0.328847 -0.509797 0.172035 0.000000 0.000000 0.000000 0.000001 0.000000 0.000000 1.153614 -14.769746 -6.772559 2.903377 -20.762698 -57.237723 0.000021 -61.769635 0.000032 32.795191 3.652896 41.345041 6.533118 1.838519 20.872491 2.677544 20.203956 -24.333459 -0.000000 0.000001 -0.000003 -0.213804 2.829568 -27.080112 0.399409 2.127921 -21.258943 0.000001 -0.000001 -0.000004 1.306687 7.335263 -16.626916 0.323882 1.922672 -19.122277 -0.000001 0.000000 -0.000001 1.816485 9.843953 -14.270835 0.205439 1.539290 -15.202379 0.000003 0.000001 0.000001 2.011320 10.855366 -13.919865 0.168831 1.397680 -13.774338 -0.000000 -0.000003 -0.000004 -0.000001 0.000001 -0.000002 -0.000001 0.000001 -0.000002 -0.000002 0.000001 -0.000002 0.000002 0.000000 0.000001 0.000002 0.000000 0.000000 0.000002 0.000000 0.000001 0.000001 0.000001 0.000001 3.187853 -4.727847 8.245239 -4.932288 37.148385 65.022103 0.000014 54.880106 -0.000000 44.176489 5.104087 -36.335356 -9.372624 -1.608903 -17.589738 3.594634 -24.360872 34.677372 0.000001 -0.000003 0.000001 2.953640 1.011736 13.517899 0.476488 -2.053929 26.119028 -0.000000 -0.000001 -0.000002 0.105329 -3.658249 2.530064 0.587660 -2.266479 29.068039 0.000000 -0.000000 0.000001 0.455267 -7.625859 4.309869 0.108243 -0.999301 12.364096 0.000002 0.000001 -0.000000 -11.166263 -10.222008 7.155016 0.029193 -0.521236 6.412214 0.000001 0.000005 0.000001 -0.000003 0.000001 -0.000000 -0.000000 -0.000003 0.000002 -0.000003 0.000001 0.000001 0.000001 0.000000 -0.000000 0.000002 0.000000 0.000000 0.000001 0.000000 -0.000000 0.000002 -0.000000 0.000000 -0.000000 0.000000 -0.000000 -0.000000 0.000000 -0.000000 -0.000000 0.000000 -0.000000 -0.000000 0.000000 -0.000000 -0.000000 0.000000 -0.000000 -0.000000 0.000000 -0.000000 -0.000000 0.000000 -0.000000 -0.000001 0.000000 0.000000 0.000000 0.000000 0.000000 
0.241941 55.820503 10.598591 0.270524 0.120046 0.920887 0.000000 0.000000 -0.000000 -101.306739 -11.066792 12.299502 84.311350 4.029614 -0.036223 18.941498 -7.526745 -7.399302 0.000000 0.000001 -0.000000 -0.000001 0.000001 0.000002 -103.153342 12.075711 -7.871011 85.656125 -3.564686 -1.614555 19.554471 0.716244 8.863501 0.000000 0.000000 0.000000 -0.000001 0.000000 -0.000001 10.538138 0.083012 -1.545725 0.117322 0.217353 -0.407600 -0.022415 0.256674 -0.330249 -0.243874 -0.509384 0.152254 -0.243877 -0.509384 0.152254 0.000001 0.000000 0.000000 -0.243804 -0.509383 0.152255 -0.243945 -0.509387 0.152254 -0.000001 -0.000000 0.000000 0.000001 0.000000 0.000000 1.483756 -14.226183 -5.573874 1.069128 -20.426972 -59.574180 0.000014 -61.355070 0.000008 34.405930 2.995969 41.065078 6.452963 1.879076 20.945117 2.637607 20.235375 -24.276318 0.000003 0.000000 0.000003 -0.202166 2.869523 -27.281736 0.403276 2.137806 -21.362738 0.000002 -0.000001 0.000001 1.314198 7.336108 -16.743270 0.317883 1.905280 -18.942386 -0.000002 -0.000001 -0.000002 1.837847 9.880262 -14.375277 0.203791 1.533225 -15.140793 -0.000002 -0.000001 0.000001 1.980430 10.842514 -13.919520 0.169167 1.399050 -13.787682 0.000003 0.000002 -0.000001 -0.000001 -0.000001 -0.000002 -0.000001 -0.000001 -0.000002 -0.000002 -0.000001 -0.000002 0.000002 0.000001 0.000000 0.000002 0.000001 0.000001 0.000002 0.000001 0.000000 0.000001 0.000001 0.000000 3.198768 -5.102190 7.675742 -5.994477 37.040157 66.362364 0.000024 54.665723 -0.000019 44.858408 5.503243 -36.428841 -9.351717 -1.600118 -17.560048 3.651745 -24.412464 34.712340 0.000001 0.000001 -0.000000 2.954283 1.012341 13.493646 0.483862 -2.068894 26.324314 -0.000001 0.000001 -0.000001 0.105328 -3.658229 2.530056 0.592583 -2.275297 29.192085 -0.000001 0.000002 -0.000003 0.455262 -7.625823 4.309878 0.109727 -1.006030 12.448367 -0.000000 0.000001 -0.000002 -11.173443 -10.204960 7.126059 0.029276 -0.521857 6.419524 -0.000000 0.000003 0.000000 -0.000002 0.000002 -0.000000 -0.000002 -0.000002 0.000000 -0.000002 0.000002 -0.000000 0.000003 -0.000001 -0.000001 0.000003 0.000000 -0.000001 0.000003 -0.000001 -0.000001 0.000003 -0.000000 -0.000001 -0.000000 0.000000 -0.000000 -0.000000 0.000000 -0.000000 -0.000000 0.000000 -0.000000 -0.000000 0.000000 -0.000000 -0.000000 0.000000 -0.000000 -0.000000 0.000000 -0.000000 -0.000000 0.000000 -0.000000 0.000000 -0.000000 0.000000 0.000000 0.000000 -0.000000 
0.232170 55.793419 10.658643 0.303250 0.134965 0.926262 0.000000 -0.000000 -0.000000 -101.574414 -11.100843 12.207977 84.432449 4.071398 0.040134 19.146489 -7.409985 -7.442395 0.000000 -0.000001 -0.000000 -0.000003 0.000000 -0.000000 -103.410157 12.067067 -7.686609 85.777716 -3.576308 -1.739807 19.949306 0.588756 8.817516 0.000000 0.000000 0.000000 0.000002 0.000001 -0.000000 10.629209 0.072188 -1.549371 0.315336 0.220705 -0.432224 0.118235 0.263075 -0.353244 -0.151260 -0.508305 0.131599 -0.151259 -0.508305 0.131599 0.000001 0.000000 0.000000 -0.151255 -0.508307 0.131599 -0.151259 -0.508305 0.131599 -0.000001 0.000000 0.000000 0.000001 0.000000 0.000000 1.802074 -13.648143 -4.308315 -0.710286 -20.139151 -61.883420 -0.000022 -60.953701 -0.000029 35.923680 2.343251 40.900863 6.371262 1.919664 21.018731 2.597052 20.266838 -24.218326 -0.000000 -0.000001 -0.000001 -0.189493 2.911288 -27.505097 0.407954 2.149734 -21.487813 0.000000 -0.000001 -0.000002 1.321741 7.336920 -16.860344 0.311932 1.887859 -18.762629 0.000001 -0.000002 0.000002 1.860538 9.917038 -14.489254 0.201466 1.524654 -15.054193 -0.000000 -0.000001 -0.000001 1.949154 10.829346 -13.919242 0.169495 1.400397 -13.801253 0.000001 -0.000002 0.000000 -0.000002 0.000001 -0.000001 -0.000002 0.000001 -0.000001 -0.000003 0.000001 -0.000001 -0.000001 0.000000 -0.000002 -0.000001 0.000000 -0.000001 -0.000001 0.000000 -0.000002 -0.000003 0.000000 -0.000002 3.202631 -5.492630 7.084809 -7.091205 36.919700 67.729296 0.000013 54.479361 -0.000006 45.560316 5.928794 -36.554694 -9.324211 -1.588516 -17.520818 3.726560 -24.479055 34.758204 0.000002 -0.000001 0.000001 2.954050 1.012882 13.461922 0.493634 -2.088503 26.593550 -0.000001 -0.000001 -0.000001 0.105329 -3.658238 2.530009 0.599062 -2.286865 29.355122 -0.000001 0.000002 0.000002 0.455253 -7.625773 4.309848 0.111679 -1.014849 12.559488 -0.000001 0.000001 -0.000000 -11.184670 -10.181524 7.087840 0.029324 -0.522418 6.426610 0.000003 0.000003 0.000001 -0.000002 0.000003 -0.000003 -0.000001 -0.000004 0.000000 -0.000002 0.000003 -0.000003 0.000004 0.000002 0.000001 0.000005 0.000001 0.000001 0.000004 0.000002 0.000001 0.000005 0.000001 0.000001 0.000000 0.000000 0.000000 0.000000 0.000000 0.000000 0.000000 0.000000 0.000000 0.000000 0.000000 0.000000 0.000000 0.000000 0.000000 0.000000 0.000000 0.000000 0.000000 0.000000 0.000000 0.000001 0.000000 0.000000 0.000000 -0.000000 -0.000000 
